<?xml version="1.0" encoding="UTF-8" standalone="no"?>
<!-- Created with Inkscape (http://www.inkscape.org/) -->

<svg
   width="68.994202mm"
   height="69.75869mm"
   viewBox="0 0 68.994202 69.75869"
   version="1.1"
   id="svg1"
   xmlns:inkscape="http://www.inkscape.org/namespaces/inkscape"
   xmlns:sodipodi="http://sodipodi.sourceforge.net/DTD/sodipodi-0.dtd"
   xmlns:xlink="http://www.w3.org/1999/xlink"
   xmlns="http://www.w3.org/2000/svg"
   xmlns:svg="http://www.w3.org/2000/svg">
  <sodipodi:namedview
     id="namedview1"
     pagecolor="#ffffff"
     bordercolor="#000000"
     borderopacity="0.25"
     inkscape:showpageshadow="2"
     inkscape:pageopacity="0.0"
     inkscape:pagecheckerboard="0"
     inkscape:deskcolor="#d1d1d1"
     inkscape:document-units="mm"
     showguides="false" />
  <defs
     id="defs1">
    <linearGradient
       id="linearGradient5"
       inkscape:collect="always">
      <stop
         style="stop-color:#d4d4d6;stop-opacity:1;"
         offset="0"
         id="stop5" />
      <stop
         style="stop-color:#d4d4d6;stop-opacity:0;"
         offset="1"
         id="stop6" />
    </linearGradient>
    <radialGradient
       inkscape:collect="always"
       xlink:href="#linearGradient5"
       id="radialGradient6"
       cx="98.331078"
       cy="125.27895"
       fx="98.331078"
       fy="125.27895"
       r="34.497101"
       gradientTransform="matrix(1.2049862,0,0,1.1800555,-21.112109,-23.226078)"
       gradientUnits="userSpaceOnUse" />
  </defs>
  <g
     inkscape:label="Camada 1"
     inkscape:groupmode="layer"
     id="layer1"
     transform="translate(-63.833974,-90.39961)">
    <path
       style="display:none;fill:url(#radialGradient6);stroke-width:2.35876;stroke-linecap:round;paint-order:markers stroke fill"
       id="path5"
       sodipodi:type="arc"
       sodipodi:cx="97.375481"
       sodipodi:cy="124.61004"
       sodipodi:rx="41.568527"
       sodipodi:ry="40.708492"
       sodipodi:start="5.9919755"
       sodipodi:end="5.9914583"
       sodipodi:open="true"
       sodipodi:arc-type="arc"
       d="M 137.19386,112.92217 A 41.568527,40.708492 0 0 1 109.31542,163.60308 41.568527,40.708492 0 0 1 57.560191,136.30799 41.568527,40.708492 0 0 1 85.425242,85.620024 41.568527,40.708492 0 0 1 137.18768,112.902" />
    <g
       id="g6"
       inkscape:export-filename="g6.png"
       inkscape:export-xdpi="96"
       inkscape:export-ydpi="96">
      <path
         style="fill:#ffffff;fill-opacity:1;stroke-width:1.989;stroke-linecap:round;paint-order:markers stroke fill"
         id="path1"
         sodipodi:type="arc"
         sodipodi:cx="98.331078"
         sodipodi:cy="125.27895"
         sodipodi:rx="34.497101"
         sodipodi:ry="34.879341"
         sodipodi:start="5.9919755"
         sodipodi:end="5.9914583"
         sodipodi:open="true"
         sodipodi:arc-type="arc"
         d="M 131.37575,115.2647 A 34.497101,34.879341 0 0 1 108.23986,158.68848 34.497101,34.879341 0 0 1 65.288963,135.30185 34.497101,34.879341 0 0 1 88.413753,91.872016 34.497101,34.879341 0 0 1 131.37063,115.24742" />
      <path
         style="fill:#5e9ecb;fill-opacity:1;stroke-width:2.58776;stroke-linecap:round;paint-order:markers stroke fill"
         id="path3"
         sodipodi:type="arc"
         sodipodi:cx="156.64989"
         sodipodi:cy="1.3583174"
         sodipodi:rx="9.2451572"
         sodipodi:ry="5.4170232"
         sodipodi:start="5.9919755"
         sodipodi:end="5.9914583"
         sodipodi:open="true"
         sodipodi:arc-type="arc"
         d="m 165.5058,-0.19697122 a 9.2451572,5.4170232 0 0 1 -6.20038,6.74403892 9.2451572,5.4170232 0 0 1 -11.51076,-3.6321199 9.2451572,5.4170232 0 0 1 6.1974,-6.7449782 9.2451572,5.4170232 0 0 1 11.51236,3.63037566"
         transform="matrix(0.77385363,0.63336448,-0.51350294,0.85808783,0,0)" />
      <path
         style="fill:#5e9ecb;fill-opacity:1;stroke-width:2.7652;stroke-linecap:round;paint-order:markers stroke fill"
         id="path4"
         sodipodi:type="arc"
         sodipodi:cx="-13.874753"
         sodipodi:cy="128.25272"
         sodipodi:rx="9.8958359"
         sodipodi:ry="5.7786822"
         sodipodi:start="5.9919755"
         sodipodi:end="5.9914583"
         sodipodi:open="true"
         sodipodi:arc-type="arc"
         d="m -4.3955593,126.59359 a 9.8958359,5.7786822 0 0 1 -6.6367617,7.1943 9.8958359,5.7786822 0 0 1 -12.320891,-3.87462 9.8958359,5.7786822 0 0 1 6.633576,-7.19529 9.8958359,5.7786822 0 0 1 12.322606,3.87275"
         transform="matrix(-0.77697195,0.62953521,0.51732031,0.85579185,0,0)" />
      <path
         style="fill:#cb6a5e;fill-opacity:1;stroke-width:1.989;stroke-linecap:round;paint-order:markers stroke fill"
         id="path6"
         sodipodi:type="arc"
         sodipodi:cx="98.490814"
         sodipodi:cy="94.387367"
         sodipodi:rx="6.736969"
         sodipodi:ry="2.9145756"
         sodipodi:start="5.9919755"
         sodipodi:end="5.9914583"
         sodipodi:open="true"
         sodipodi:arc-type="arc"
         d="m 104.94414,93.55056 a 6.736969,2.9145756 0 0 1 -4.51823,3.628563 6.736969,2.9145756 0 0 1 -8.387919,-1.954226 6.736969,2.9145756 0 0 1 4.51606,-3.629069 6.736969,2.9145756 0 0 1 8.389089,1.953288" />
    </g>
  </g>
</svg>
